REM DIRINDEX 1\2\4\18,1\2\4\19,1\2\5\20,1\2\5\21,1\2\6\22,1\2\6\23,1\2\7\24,1\2\7\25,1\2\8\26,1\2\8\27,1\2\9\28,1\2\9\29,1\2\10\30,1\3\11\31,1\3\11\32,1\3\11\33,1\3\11\34,1\3\11\35,1\3\12\36,1\3\12\37,1\3\12\38,1\3\12\39,1\3\12\40,1\3\13\41,1\3\13\42,1\3\13\43,1\3\13\44,1\3\13\45,1\3\14\46,1\3\14\47,1\3\14\48,1\3\14\49,1\3\15\50,1\3\15\51,1\3\15\52,1\3\15\53,1\3\15\54,1\3\16\55,1\3\16\56,1\3\16\57,1\3\16\58,1\3\16\59,1\3\17\60,1\3\17\61
REM DIRNAME "folder01","folder02","folder03","folder04","folder05","folder06","folder07","folder08","folder09","folder10","folder11","folder12","folder13","folder14","folder15","folder16","folder17","folder18","folder19","folder20","folder21","folder22","folder23","folder24","folder25","folder26","folder27","folder28","folder29","folder30","folder31","folder32","folder33","folder34","folder35","folder36","folder37","folder38","folder39","folder40","folder41","folder42","folder43","folder44","folder45","folder46","folder47","folder48","folder49","folder50","folder51","folder52","folder53","folder54","folder55","folder56","folder57","folder58","folder59","folder60","folder61"
TITLE ""
FILE "TOEIC LR Kinnojyukugo_13.mp3" MP3
  TRACK 01 AUDIO
    TITLE "0:"
    INDEX 01 00:00:00
  TRACK 02 AUDIO
    TITLE "18:cjc160_1495"
    INDEX 01 00:00:06
  TRACK 03 AUDIO
    TITLE "0:"
    INDEX 01 00:01:39
  TRACK 04 AUDIO
    TITLE "19:cjc160_1496"
    INDEX 01 00:02:01
  TRACK 05 AUDIO
    TITLE "0:"
    INDEX 01 00:05:15
  TRACK 06 AUDIO
    TITLE "18:cjc160_1497"
    INDEX 01 00:06:13
  TRACK 07 AUDIO
    TITLE "0:"
    INDEX 01 00:07:40
  TRACK 08 AUDIO
    TITLE "19:cjc160_1498"
    INDEX 01 00:08:04
  TRACK 09 AUDIO
    TITLE "0:"
    INDEX 01 00:11:02
  TRACK 10 AUDIO
    TITLE "18:cjc160_1499"
    INDEX 01 00:12:04
  TRACK 11 AUDIO
    TITLE "0:"
    INDEX 01 00:13:31
  TRACK 12 AUDIO
    TITLE "19:cjc160_1500"
    INDEX 01 00:13:70
  TRACK 13 AUDIO
    TITLE "0:"
    INDEX 01 00:16:31
  TRACK 14 AUDIO
    TITLE "18:cjc160_1501"
    INDEX 01 00:17:28
  TRACK 15 AUDIO
    TITLE "0:"
    INDEX 01 00:18:43
  TRACK 16 AUDIO
    TITLE "19:cjc160_1502"
    INDEX 01 00:19:04
  TRACK 17 AUDIO
    TITLE "0:"
    INDEX 01 00:21:03
  TRACK 18 AUDIO
    TITLE "18:cjc160_1503"
    INDEX 01 00:22:04
  TRACK 19 AUDIO
    TITLE "0:"
    INDEX 01 00:23:23
  TRACK 20 AUDIO
    TITLE "19:cjc160_1504"
    INDEX 01 00:23:62
  TRACK 21 AUDIO
    TITLE "0:"
    INDEX 01 00:26:33
  TRACK 22 AUDIO
    TITLE "18:cjc160_1505"
    INDEX 01 00:27:35
  TRACK 23 AUDIO
    TITLE "0:"
    INDEX 01 00:28:46
  TRACK 24 AUDIO
    TITLE "19:cjc160_1506"
    INDEX 01 00:29:12
  TRACK 25 AUDIO
    TITLE "0:"
    INDEX 01 00:31:13
  TRACK 26 AUDIO
    TITLE "18:cjc160_1507"
    INDEX 01 00:32:14
  TRACK 27 AUDIO
    TITLE "0:"
    INDEX 01 00:33:45
  TRACK 28 AUDIO
    TITLE "19:cjc160_1508"
    INDEX 01 00:34:07
  TRACK 29 AUDIO
    TITLE "0:"
    INDEX 01 00:36:61
  TRACK 30 AUDIO
    TITLE "18:cjc160_1509"
    INDEX 01 00:37:62
  TRACK 31 AUDIO
    TITLE "0:"
    INDEX 01 00:39:01
  TRACK 32 AUDIO
    TITLE "19:cjc160_1510"
    INDEX 01 00:39:40
  TRACK 33 AUDIO
    TITLE "0:"
    INDEX 01 00:41:58
  TRACK 34 AUDIO
    TITLE "18:cjc160_1511"
    INDEX 01 00:42:60
  TRACK 35 AUDIO
    TITLE "0:"
    INDEX 01 00:43:71
  TRACK 36 AUDIO
    TITLE "19:cjc160_1512"
    INDEX 01 00:44:33
  TRACK 37 AUDIO
    TITLE "0:"
    INDEX 01 00:46:46
  TRACK 38 AUDIO
    TITLE "18:cjc160_1513"
    INDEX 01 00:47:47
  TRACK 39 AUDIO
    TITLE "0:"
    INDEX 01 00:49:40
  TRACK 40 AUDIO
    TITLE "19:cjc160_1514"
    INDEX 01 00:50:04
  TRACK 41 AUDIO
    TITLE "0:"
    INDEX 01 00:52:64
  TRACK 42 AUDIO
    TITLE "18:cjc160_1515"
    INDEX 01 00:53:61
  TRACK 43 AUDIO
    TITLE "0:"
    INDEX 01 00:55:05
  TRACK 44 AUDIO
    TITLE "19:cjc160_1516"
    INDEX 01 00:55:45
  TRACK 45 AUDIO
    TITLE "0:"
    INDEX 01 00:57:57
  TRACK 46 AUDIO
    TITLE "18:cjc160_1517"
    INDEX 01 00:58:57
  TRACK 47 AUDIO
    TITLE "0:"
    INDEX 01 01:00:38
  TRACK 48 AUDIO
    TITLE "19:cjc160_1518"
    INDEX 01 01:01:04
  TRACK 49 AUDIO
    TITLE "0:"
    INDEX 01 01:03:64
  TRACK 50 AUDIO
    TITLE "18:cjc160_1519"
    INDEX 01 01:04:65
  TRACK 51 AUDIO
    TITLE "0:"
    INDEX 01 01:06:19
  TRACK 52 AUDIO
    TITLE "19:cjc160_1520"
    INDEX 01 01:06:56
  TRACK 53 AUDIO
    TITLE "0:"
    INDEX 01 01:09:49
  TRACK 54 AUDIO
    TITLE "18:cjc160_1521"
    INDEX 01 01:10:48
  TRACK 55 AUDIO
    TITLE "0:"
    INDEX 01 01:11:71
  TRACK 56 AUDIO
    TITLE "19:cjc160_1522"
    INDEX 01 01:12:37
  TRACK 57 AUDIO
    TITLE "0:"
    INDEX 01 01:15:14
  TRACK 58 AUDIO
    TITLE "18:cjc160_1523"
    INDEX 01 01:16:15
  TRACK 59 AUDIO
    TITLE "0:"
    INDEX 01 01:18:01
  TRACK 60 AUDIO
    TITLE "19:cjc160_1524"
    INDEX 01 01:18:40
  TRACK 61 AUDIO
    TITLE "0:"
    INDEX 01 01:20:54
  TRACK 62 AUDIO
    TITLE "18:cjc160_1525"
    INDEX 01 01:21:54
  TRACK 63 AUDIO
    TITLE "0:"
    INDEX 01 01:23:35
  TRACK 64 AUDIO
    TITLE "19:cjc160_1526"
    INDEX 01 01:23:72
  TRACK 65 AUDIO
    TITLE "0:"
    INDEX 01 01:27:41
  TRACK 66 AUDIO
    TITLE "18:cjc160_1527"
    INDEX 01 01:28:38
  TRACK 67 AUDIO
    TITLE "0:"
    INDEX 01 01:30:41
  TRACK 68 AUDIO
    TITLE "19:cjc160_1528"
    INDEX 01 01:31:01
  TRACK 69 AUDIO
    TITLE "0:"
    INDEX 01 01:33:45
  TRACK 70 AUDIO
    TITLE "18:cjc160_1529"
    INDEX 01 01:34:47
  TRACK 71 AUDIO
    TITLE "0:"
    INDEX 01 01:37:14
  TRACK 72 AUDIO
    TITLE "19:cjc160_1530"
    INDEX 01 01:37:49
  TRACK 73 AUDIO
    TITLE "0:"
    INDEX 01 01:40:26
  TRACK 74 AUDIO
    TITLE "18:cjc160_1531"
    INDEX 01 01:41:27
  TRACK 75 AUDIO
    TITLE "0:"
    INDEX 01 01:43:42
  TRACK 76 AUDIO
    TITLE "19:cjc160_1532"
    INDEX 01 01:44:04
  TRACK 77 AUDIO
    TITLE "0:"
    INDEX 01 01:47:02
  TRACK 78 AUDIO
    TITLE "18:cjc160_1533"
    INDEX 01 01:48:08
  TRACK 79 AUDIO
    TITLE "0:"
    INDEX 01 01:49:23
  TRACK 80 AUDIO
    TITLE "19:cjc160_1534"
    INDEX 01 01:49:64
  TRACK 81 AUDIO
    TITLE "0:"
    INDEX 01 01:53:19
  TRACK 82 AUDIO
    TITLE "18:cjc160_1535"
    INDEX 01 01:54:20
  TRACK 83 AUDIO
    TITLE "0:"
    INDEX 01 01:55:63
  TRACK 84 AUDIO
    TITLE "19:cjc160_1536"
    INDEX 01 01:56:25
  TRACK 85 AUDIO
    TITLE "0:"
    INDEX 01 01:59:19
  TRACK 86 AUDIO
    TITLE "18:cjc160_1537"
    INDEX 01 02:00:21
  TRACK 87 AUDIO
    TITLE "0:"
    INDEX 01 02:01:32
  TRACK 88 AUDIO
    TITLE "19:cjc160_1538"
    INDEX 01 02:01:69
  TRACK 89 AUDIO
    TITLE "0:"
    INDEX 01 02:04:38
  TRACK 90 AUDIO
    TITLE "18:cjc160_1539"
    INDEX 01 02:05:41
  TRACK 91 AUDIO
    TITLE "0:"
    INDEX 01 02:06:54
  TRACK 92 AUDIO
    TITLE "19:cjc160_1540"
    INDEX 01 02:07:15
  TRACK 93 AUDIO
    TITLE "0:"
    INDEX 01 02:09:65
  TRACK 94 AUDIO
    TITLE "18:cjc160_1541"
    INDEX 01 02:10:64
  TRACK 95 AUDIO
    TITLE "0:"
    INDEX 01 02:11:64
  TRACK 96 AUDIO
    TITLE "19:cjc160_1542"
    INDEX 01 02:12:37
  TRACK 97 AUDIO
    TITLE "0:"
    INDEX 01 02:14:07
  TRACK 98 AUDIO
    TITLE "18:cjc160_1543"
    INDEX 01 02:15:14
  TRACK 99 AUDIO
    TITLE "0:"
    INDEX 01 02:17:07
  TRACK 100 AUDIO
    TITLE "19:cjc160_1544"
    INDEX 01 02:17:46
  TRACK 101 AUDIO
    TITLE "0:"
    INDEX 01 02:19:63
  TRACK 102 AUDIO
    TITLE "18:cjc160_1545"
    INDEX 01 02:20:64
  TRACK 103 AUDIO
    TITLE "0:"
    INDEX 01 02:22:42
  TRACK 104 AUDIO
    TITLE "19:cjc160_1546"
    INDEX 01 02:23:04
  TRACK 105 AUDIO
    TITLE "0:"
    INDEX 01 02:25:71
  TRACK 106 AUDIO
    TITLE "18:cjc160_1547"
    INDEX 01 02:26:71
  TRACK 107 AUDIO
    TITLE "0:"
    INDEX 01 02:28:15
  TRACK 108 AUDIO
    TITLE "19:cjc160_1548"
    INDEX 01 02:28:52
  TRACK 109 AUDIO
    TITLE "0:"
    INDEX 01 02:32:05
  TRACK 110 AUDIO
    TITLE "18:cjc160_1549"
    INDEX 01 02:33:06
  TRACK 111 AUDIO
    TITLE "0:"
    INDEX 01 02:34:41
  TRACK 112 AUDIO
    TITLE "19:cjc160_1550"
    INDEX 01 02:35:03
  TRACK 113 AUDIO
    TITLE "0:"
    INDEX 01 02:37:67
  TRACK 114 AUDIO
    TITLE "18:cjc160_1551"
    INDEX 01 02:38:68
  TRACK 115 AUDIO
    TITLE "0:"
    INDEX 01 02:40:10
  TRACK 116 AUDIO
    TITLE "19:cjc160_1552"
    INDEX 01 02:40:49
  TRACK 117 AUDIO
    TITLE "0:"
    INDEX 01 02:43:32
  TRACK 118 AUDIO
    TITLE "18:cjc160_1553"
    INDEX 01 02:44:32
  TRACK 119 AUDIO
    TITLE "0:"
    INDEX 01 02:45:68
  TRACK 120 AUDIO
    TITLE "19:cjc160_1554"
    INDEX 01 02:46:32
  TRACK 121 AUDIO
    TITLE "0:"
    INDEX 01 02:49:03
